<mxfile host="app.diagrams.net" agent="Mozilla/5.0 (Windows NT 10.0; Win64; x64) AppleWebKit/537.36 (KHTML, like Gecko) Chrome/128.0.0.0 Safari/537.36" version="24.7.13">
  <diagram name="Page-1" id="m7pfZY9P6DN1Yqn1rWEg">
    <mxGraphModel dx="780" dy="445" grid="0" gridSize="10" guides="1" tooltips="1" connect="1" arrows="1" fold="1" page="1" pageScale="1" pageWidth="850" pageHeight="1100" math="0" shadow="0">
      <root>
        <mxCell id="0" />
        <mxCell id="1" parent="0" />
        <mxCell id="uRRXN4-jzMHdJdjElicX-1" value="" style="shape=image;verticalLabelPosition=bottom;labelBackgroundColor=default;verticalAlign=top;aspect=fixed;imageAspect=0;image=data:image/png,iVBORw0KGgoAAAANSUhEUgAAAYsAAADACAYAAAD1CE+QAAAAAXNSR0IArs4c6QAAAARnQU1BAACxjwv8YQUAAAAJcEhZcwAAFxEAABcRAcom8z8AAEchSURBVHhe7Z0FWFXZ3oed+83MvXfCMccOVKSlRZCWLgXBABGwu0VFHbs7MLG7AztQVEJUUAwEFFBEFFAQkIbft4s4cIRzZ5yR+L8+63GvvffZnLNjvat3PQYVJpxiwg0KFChQoEChXLjIBEMmcAugQIECBQoUvhAimMCZA2vWrMGNGzcoUKBAgQIFLhw6dKhYFrElsmA3EARBEEQxsbGxJAuCIAiickgWBEEQRJWQLAiCIIgqIVkQBEEQVUKyIAiCIKqEZEEQBEFUCcmCIAiCqBKSBUEQBFElJAuCIAiiSkgWBEEQRJWQLAiCIIgqIVkQBEEQVUKyICTi/fv3uHDhAk6ePEmhloUzZ84gODgYBQUFwtUmiIqQLAiJuHfvHlq2bAlNTU1oaWlRqCVBW1sbHTp0gIWFBYqKioSrTRAVIVkQEhEUFARFRUVER0cjIyMD6enpFGpBYK/lypUrYWBgIFxpghAPyYKQCLaagpVFUlKSsIaoLWzevBmGhoZCjCDEQ7IgJKJYFgkJCcIaorawceNGkgVRJSQLQiJIFrUXkgUhCSQLQiJIFrUXkgUhCSQLQiJIFrUXkgUhCSQLQiJIFrUXkgUhCSQLQiJIFrUXkgUhCSQLQiJIFrUXkgUhCSQLQiJIFrUXkgUhCSQLQiJIFrUXkgUhCSQLQiJIFrUXkgUhCSQLQiJIFrUXkgUhCSQLQiJIFrUXkgUhCSQLQiJqgixysz4jMzOTCzl5f/LdDEWFwsLfR3WbCJxkQUgCyYKQiOoui9cBeyDd/Hf8/jsfOit3xfgVh5EmoTMKP8Vj97Y9iPiQJaz5+jw8fxRHLtxDdXvFEMmCkASSBSER1V0Whzx7Qsd2IgIDA7lww3cv9OXaoc/8YxIlzvFXV0DewhUfhPjXJxNupt0x/0yUEK8+kCwISSBZEBJRvWWRjlGWRvDcFSbEed7f2QrFTpYITeUrfgoyErB17mhod9WEmcsE3Irg1fA64Ai6dvodP9VvgKFe+7l1GW8fYd5oZ+7NgK4TlyLyYw63nuXDi0BM6G/ObNPChIU7kZxTWrH05PoBDLAxgKahDbb4hvIriz5ipbsNfq3/H7RRtsDtFxn8+moCyYKQBJIFIRHVWRaFSUGw0FXB8SefhTUCmY/RV1cGhx/moDDrFUabaMDAcTTWrl2LP0b2QrvuznjKiCQpOgj6irLQc56I4xfCkRZ9BxZaMug3bg7WMPuOsNOEcV9PfGKPmREJj64acJ60BGvWrIaNaivojt7AtUOEHpwFhc4qmLZkPdat/AMqql2x5spzRhbp2DvVBW3b6GCe9z68Tq1eFVEkC0ISSBaERFRnWcRd80ZXTWfE5Aorikl9AMduXXDiaT4K06Kwb/cevBP2KYy6CGlFPZyOYxPuVAzurY0dIenctqSnd7Dj4KWS6qvn5/6AhqY+4lgjvL8NvQbNsODUY35jwj2s23EWGe8ewEihExaefMivZ9g/tSfM+6/klh8c8ILhkGXccnWDZEFIAsmCkIjqLIszy/tBb+jiCr2M0h7sh7qCA55mALmpMdi2bDp6muhDU1MXGgrt0FTbAlGMPIpeX4aVWg/cec8fISX6HpZ4joSxgQ40u2tDTqotNCxnI5PbypyL0ytg1FUZ6qZ9cfRuNLfu+Zk/8ON3/0azVq3RjGtkb4ZGv/4H5u7e3PYto4wxbOlJbrm6QbIgJIFkQUhE9ZVFDubYdcPYtZeFeCmbx1rAfPJWZikHSwcYQcViBE5duYm795/g8PwBMDAfzmwBXp9fg27W47jG7aLMaAzoLgfb4QtwxT8AD55EYK57D5h47gMKUhESdJX7TM6HNzjiPRXSHVRwISIdtzcNhqHVWNx7EMKdq9BHj/Hs6VPExH9kijHJGG5igdUXXzCfrH6QLAhJIFkQElFtZZH+BBYGPXA0SnR8hP/OmeiiaofAxDwmFoOejaWx8YbQ16kgES46MtAfupOLHl/QF45eO7jlvIhTkFJSQ2AaF0Xeq1vQlfoFngdDmUgUtDp+B69Dz/iNTFmjf0dFzD4Yg+hLf0Cpe28kC1uyX/ljyoRpeJ7KuOLdbeibmiLw7+tq9ZcgWRCSQLIgJKK6yiI5aDua/1wPmkbWsLKygpWNLfo794aeUS+cfZAo7JWNHVMdICWrBitrO/S01EOTn36G2YzD3NYT8y3RpJUCFu+4BWQlYZJjd8io68K6pwNMDbrhV+b48488YPYswp45w9C8jRwsmb9lZ6oLZdtBCGcbrLNfY6ilBrpoGzPfwxYa8p0xeuVh5DAOy4m9BpW2/4VOrzGI+li+suzbQ7IgJIFkQUhEtZXF00CsnDcXnpMnYuJEJnjOwObD55FUfmxdQRqObV6CiVNm4lzAIzy8eh7Hr/CN0TlJEcwxZuPQVb7EUPDxBbwXT8XU2YsQ9CQWN323wu/ha24by/0rh+HJ/K0F6/fg9acyPZs+J+LAunnM95iF88Flx1Pk4fbxrZi9aAsSs4VV1QiSBSEJJAtCIqpvmwXxVyFZEJJAsiAkgmRReyFZEJJAsiAkgmRReyFZEJJAsiAkgmRReyFZEJJAsiAkgmRReyFZEJJAsiAkgmRReyFZEJJAsiAkgmRReyFZEJJAsiAkgmRReyFZEJJAsiAkgmRReyFZEJJAsiAkgmRReyFZEJJAsiAkgmRReyFZEJJAsiAkgmRReyFZEJJAsiAkgmRReyFZEJJAsiAkgmRReyFZEJJAsiAkgmRReyFZEJJAsiAkolgWKSkpwhqitrBlyxYYGBgIMYIQD8mCkAhWFrKysggJCcGrV68QFxdXqwNbgoqPj+ceEHHba0tgf+O8efOgr68vXGmCEA/JgpCIBw8eoF27dlBSUoKKigqUlZVrbWB/X8eOHTk5qqmpid2ntgT297Vv3x729vYoKqp+r3wlqg8kC0Ii0tPTERYWhqCgIC6wJY3aGu7evQspKSmMGDEC9+7dE7tPbQnF1zI6OppkQVQKyYIgxNC1a1esXbtWiBEEQbIgCDFoaGhg+fLlQowgCJIFQYiBZEEQopAsCEIMJAuCEIVkQRBiIFkQhCgkC4IQA8mCIEQhWRCEGEgWBCEKyYIgxECyIAhRSBYEIQaSBUGIQrIgCDGQLAhCFJIFQYiBZEEQopAsCEIMJAuCEIVkQRBiIFkQhCgkC4IQA8mCIEQhWRCEGEgWBCEKyYIgxECyIAhRSBYEIQaSBUGIQrIgCDGQLAhCFJIFQYhBS0sL69atE2IEQZAsyvH69Wv4+PjA29ubQh0NW7duRdu2bdGrVy9s375d7D4Uan/YtGkTjh07hry8PCF1qNuQLMpx5MgR7oQYGhrCwMCAQh0MxsbGqF+/Pjp27IgePXqI3YdC7Q5GRkZQVlZG69atkZGRIaQOdRuSRTn27NnD1VcXFRVRqMNBW1sba9euFbuNQt0IDx48QIcOHfDp0ychdajbkCzKsXfvXi6hIOo2Ojo62LBhgxAj6iLh4eFc6ZJkwUOyKAcri27dugkxoq7CZhiogbtuExYWRrIoA8miHCQLgoVkQZAsRCFZlINkQbCQLAiShSgki3KQLAgWkgVBshCFZFEOkgXBQrIgSBaikCzKQbIgWEgWBMlCFJJFOUgWBAvJgiBZiEKyKAfJgmAhWRAkC1FIFuUgWRAsJAuCZCEKyaIcJAuChWRBkCxEIVmUg2RBsJAsCJKFKHVeFoWFhcISz5dkkZ+fLywRtQ1x11acLIonmCNqJ+Xvgy/Joq5OWV7nZXHixAns3r275AY4ePCgiCzYycQWL16MlJQUYQ1R22CnoF6yZAlCQkKENbwsiicSZDMUhw8fxoEDB0gWtZjAwECsWLEC6enpXPzp06fcrLO5ublc/O3bt1xaEBUVxcXrGnVeFo8ePUKDBg24OexZcbAvPmKX2RMzceJE/Otf/8K4ceMokajlzJw5k3sQhg0bxt0T7D3AyuLatWswNzfHzz//LCITovaRlJTElSTk5OSwbds23Lx5EwoKClxasGrVKjRv3px710ldrWWo87JgYaUgnAQ0a9YMjRs35v5n4w0bNsT79++FPYnaCltyZF90w15zNvPw22+/oWXLlvj++++5dUOHDhX2JGoz7PtsyqYF7L3QqlWrknVBQUHCnnUPkgUDexIaNWpUckOUDXPnzhX2Imo7K1euFHsP/PLLL3W26qGukZWVBRUVFbH3gYODg7BX3YRkITB16lSRG4MNTZs2pVJFHYItXbRv377CfTBy5EhhD6IuwJYuvvvuO5F74IcffkBwcLCwR92EZCEQExNToXQxZ84cYStRV2AbOMveA//973+pVFHHyM7Ohqqqqsh90Lt3b2Fr3YVkUYaypYvff/+dShV1kA8fPnA9YIrvAypV1E3YHpLF9wBbyqjrpQoWkkUZ2JPRpEkT7oRQW0Xdpbh08dNPPyEyMlJYS9Ql2LYLdXV17j6wt7cX1tZtSBblmD59OieMzMxMYQ1R12D71bdp0wYjRowQ1hB1kSNHjuDHH3/kulITf0EW7AAWLy8veHp61powY8YMODk5QV5eHrNmzRK7T00N7LXavn17yQCjrwHb35w9Zm27D9hrr6ioyPV+Ye8JcfvU1MD+toCAAOEKfh3Y0hfbvjdt2jSxf7MmBjbTyGYWpKSkuHht+23suJH/daDxn5YFO2ilbdu28PDwgKura60JgwcP5uqpxW2rqcHd3R16enowMjJCQUGBcAW/DmZmZtDX1+f+hri/XVMDew8MGTJE7LaaGthrxJaYvL29hav3dbh9+zY3FsHFxUXs362pgU3bRo0ahYEDB4rdXhMD+1tsbGwgIyODhIQE4QpKxp+WxZYtW2BhYSHEiOrOzp07YWJi8tVlwd4DbOmCqBlYWVmVTGPytfD394eGhgZNiVNDYBvr1dTU8ObNG2GNZPxpWWzdupVLfGgajJpB8fX6O2TxtXOqxN8HWxLcuHGjEPs63Lp1i+tq+r/mVIlvQ/H1+sdl8bUTH+LvgS0J/l2y+NqJD/H3wGbs/k5Z/K+JD/FtYEuCJAvii5AsCJIFwUKyICqFZEGQLAgWkgVRKSQLgmRBsJAsiEohWRAkC4KFZEFUCsmCIFkQLCQLolJIFgTJgmAhWRCVQrIgapYsCpH0OhYREc/w7NkzPI9+gc9/YkhXYZ6E09sU5SAmMgIvE5JRUB2GjhVl41l4GCJeJQkrvh4kC6JSSBZETZJFYUoojGQaon7Dxvxrjlu1ho6ZMy49fCfsURWZ2LNmOY4ERgvxysjFzhn90axBQ+i7/8F88tuS+TYU41zMYWxlxzyzZhi/9AQyhG1fA5IFUSkkC6ImyeLF+eXoqmKLB/Hv8O7dOyQmxGDTZHu01nDCk9R8Ya9iCpl/ohQkBKBrV0UcfJiKwrIbRSI8eW9vwUhVBtuuRiIl9ZOwliev7MSbYj7LUfJIiRZJ2PMtlqIvHIcjEwv76EBv4BJk5OQj43UIbNTaY9m5cGH7X4dkQVQKyYKoSbI4usADRkPKf88kDFBTw4IjT/hozgfsWzAaGrKt0VpWA57rTvOlgtQncNCUwo/f14OUigeis5hE/0M0Fox2hmzr1pBVt4D32fvcIaJOeUOpdVP8+H//hw464xGXHI8F4yZix4mjcDVTxbAVp1GU9QbLJrpBvk1rdFbVx6qjd5DHfRqI8N0K10FLceHoRmjJtofFqFWIjXmGVROc0K6tFAYtPoZMwQ35H15i+UR3dG7fGop6PXEoIIbfUJaCJGxevgY3I9KFFYCnVRO4r7wgxP46JAuiUkgWRM2RRRZmOqpg8o5AIV7KuhGqGL7iPLOUh81jbKBm6I5z1/1ww3c3lOXkMe/8cyA3DWvG9oKc+VBcu/kI2Z/fYKydBiyGzcd1Pz+c2zUfStLyuBaZgU/x0Zjs2AW6fcbjWkA4PsXehlzbFjC0G4PdJy4gMi4G0/rqQW/ALPgxn724fzkU5DvhWPgH7vscXdQLv0obYPWqPTh/cT90peqjjaIe5q3bi4uHVkCuhTROReQwXzcRnj3VYdzfC9dv+uOszyzIaZjj5otSKZQnIiwQm+cPhpGVO8ITivX01yFZEJVCsiBqjCxSQ2GmZoDDoanCimLysdCxGyZu8OdiYXcu4OGL98hI/4T3b56gn0FXDPMJ4rb5TLeCx4qz3DJbAvG7fAMvk9OQ/ikVb56cQw+lltgVyFc5LeppCM+t/GtTE/xXoEmLNjj+qDgRz0DAhWuIfsd8Nj0VCc/9YNKtNbz92LaTAvxh1wkmozcJ1WDpGKrZGgOWXeRiyHoMmw4yOBWZg8dHvNBSzhB+4THceYp/HYb+yjL4Y+9Dft/y5Gdg99oZsNLvAg3LfrjzWrR67K9AsiAqhWRB1BRZJN72hpqxBSLLtzTnRMFWpTu2Bb0HChOxfckEWPfoDlUVNXRTV0az1k3gE/yR2fETxurrYsVZppTB8Dn+MZaMcoWhrhZU1NSg2UUaTVpa4C67a24UjHUNsCWQ73V0cfFQ6FpPB1MW4Mh7/wQrJnugh542lNVUoaHSGW0adMUt1hVZT6GtoYvd99kDMfu+uAh5VVNcT+CfsTc3NkFKow/imejGkZr4b/2maP57E67BvkmT3/F7007Y6FvVa3tz4T3SBOoWMxkVfR1IFkSlkCyImiKLy8tGwMRhZkm7QDFBO6dA2WII2LdmXFsxCjIqvXAp6AkS33/AuweHoSerBX82Ef94DyaGVrj8ij1CDpYNNYaW3TgEP4vD+w9peHBgBjqbeoBRDnKeH4NOd10EshEUYe4QEzgsEkokTEK9epwllKyGIyD8Jd6npOHJqSWQVXfFa2ZrZuhudNUzRphQAIo4MQeqZv2RILS/X1rWB3ouXtyyp1UXTN/sj48pyUhO+YjMjE9ITEjE59xyz2NGAk75nkFsemnj+Jsra9FVpidivtKjS7IgKoVkQdQMWRRg3mAzuG+8KcR5Hl3YAm15bewJ5N+Z4e1oCEsX4T0qeclY6KKDX+VdOQEk3d4IXQsnvOU2pmGAiSyG+dzlYjnvn6KvZktou/KJ+OMDc6GjMwp8C8Q7DDfvgBXninP7GXA11YDjKv67FH58gSH67SDddzoXD9riCQOzafjMxYA9E5xh7VZ8bnPgZW8Cj8WXuJj3KD3oDFwqdJzKxoGlwzFo2saKXWIzY2DTpTWGrL8urMjDpmGm0O2z+Kt16a0Vssh+FQQHfXUoKChwoauBGRbvvsycWgkp+IzAi5fx+A1fLKyUolycXDUByooKmLDhjLDy21OU9Ahe49fj5Vfu7F2TZHFt51yoKSuV3Ac93cbi6mMu6ycRGYkvcP6CPzIkGFyV/fYxRjl0h0I3M1x+yicZ35LowGMY7uqE3va9MGjCQjxNzhK2/HVqhCw+R6OXdD00aClVcv21jExhbGqHbWW6j8YF7IdWp9bozGzXNzSEgXx7tNTmSx3JYbsh3ag+tB3m4BNTWgg4uADt27ThjmVobAW5Dj/BZOgs7jjbJ1tBaST/5sD8uEvQatUN56OKz3kR7h5ZCpnW7GcVYWhoCUWpVlBzm8ttXTKoG8xnHuCWGZPAw0IGo3ff46OfHsOwa2es8U/k4mnPb8JKSw5yzHdQUVZBVxMnXIsU/2bB6OtbYKHXFa7Dx2HwwF7Qt3TGndivlyDUClkE7xgPaVlDeG/fzr2qc/v6Regq3Q79Fx2r0I9aLLEXoGZkgyeSPF/xl9CNSZCW++zHjdCXwspvy8fYYLgyuZ4ffuqNFxIOPJWUmiOLVIw3kYHV4Ln8PcCEBZOc0bJTN5x+Itlo1qMLnWExY7cQqxzfJX2hZjMUBw4eQsJXFvT/ypvgQ9BSkMWinedxPyQQy0dZQNV2OOKK+17+RWqELLJScOPYEezdvVO4/j44cuEGksUM3377NAA+zD6Xgp4iIykeN/3uCbnvfIRcP41jvsHMEs/j277c8e4+T0RK3H3cuveIW//8/jXcjeS/d15KLC5cC0T5YRzPgy9w3+NOeDyS3zzD9ZDH3PrwQF88ik3mllGYgbs3zyAmmW/tKPz8Fv5XL+F9mXsqPzUOJ3Zvx96jl/Chiuc7/c1THNi9A/tOXkFKcQPKV6IWyKIIqwbZob/XKSHOk3x3B2TbG+LWm+IzVoTg0z4Y5j4AQzyX4uEr/mp8jr2LoZbqaNC0CUbN2wfOF0UZOLN9OdwGDMC0ZbsQL5QXQ49uhZOZGho1bgXPDdeRn/MWB3YeRUTMYyycOAL7/dlRn/k4t3sN3JnPTl64GTFppQ/s43PHmAseiOdBJzDMYwgOBcQyfysHx73nYODQybgRVTaHmoWL+9ZhAHOcORuPIP0Lz33MtX3ooaYMK6se0Gg/CFF1VBZF7wOYXKIRLsYJKwTWD7WAwYB1JfXYhakx2L54Mndel+26wF9vBv/Dm6AmXR/tuhji2A0+E/Ax5h6WTB7O7DsCey494Nax/dk3TRoLdan6kNawg//zT4h/cBHHLt9D6NU9GDNxLuKZP5abEI5lnqOYz7pj+5ng0kxLYQr2r/RBSMRLHFk9A8M9l+A1UwTOjr+HmWPcMXXFPnwoc6oz34RjxYzRGDBoNE4FvBDWinJu7USYT9shxBjynsC8iSZ2Bn+dKR9qSpsF8fdS82VR8BYDLZWx9EL5gSpvMVRfFuuuJjAPaA58prigi6oRBrm7ob+dETrpOyM0ORefXgRCr1NbtFMzxawlJ5CbHg9PFz1omtjD3c0Ndgbq6NFvBlKYBODuQW/ItP0Zivq2mLnuLGJCjqBjOzn0cx2CoUPG4kpYOOYOt0IXw57cZx16qEPHaRQShRRpyRAjSGn1x/yJk+HmZIx2ndTRe4AzXNyGwdFYFfKGw/hGroJkLHQ1gqKOFdyY41jrdYHFxA1IF3PKYu76w//uS3y8fwSmLZzx5CvnJmqKLOKuLIeGRT+8Lte6GXtxCQyNHMG2X35+FQSnriow6+3CnVc9FRk4LjjC5SKvbJuGxo3awLTPCJwNSsDLkEPori4PxwGDmH2dodJJBsuPMMLIf4dVA3ug4e9NYO86FucfJmDztL5oq9gDw91cMWbWdoTfPQkDTWU4OLOfdYWGjBRm7uHrkgvj/aAkI42+7l7wHDUcRipSUDN1gLNrPwwf7AaVVq0xfuM1bt+k0GMwUuwM674ecPPoDzllbWy4HsVtK0tOzmdkFpTmJrKjzkC+lSbORXydyR5IFgRLjZdF1osLMFQyxs035Y5X9BYjzWWw9nIim23DyjleCOFbrhiioa2sjjV3+JzXvGEmmC6M7vwUdRuz5qyFUEhEQeRBdFXohCBuRSYmMQLYcJ2fZybkwDj8q2FHHAvm6xcLEu9j7vTleF1c8n19Hqpq0rgez0ZSMEi/AYxGbsVnNkEreAK9pt+h19yT7EYURRxDt3aKCGdymYHbxkHJwBnxxaWET3dgKNMVvhHFTWIVSfLfAcPmznhaR2VxfM5AWA1cWaHaMfbqEhibOHCyiPHfhfmrhbpihicHZqKlwXCua2FRzEXoW/VCcd79ys41WMuUAovZN0UL5kMWccsfg7fBRL8f+M4sWRhk3godzTzxQRBV0P71WLm79Fk4ucAcOu6zueXEmyvQtk0rbLvMZ24e7hiKnxp2xskn/NEOjDCEzeBVjFXSMcxEEcPXCH3vGa6u8oCB7ayS0pBY8pMxxkAOhoNX/6kJ9MRBsiBYarwsHh+fBRW7kajQNJ0UiB4yxvB9wVY3ZSHo4l5MGuIMGytbWHTXQBNZNVx6zXyHvEj019LEwQf8EQozU3Bu93p4uDjAytYKuhoK6Kzigng2+5lwA1pdLHEplk/Fd40wRg+PFdwyR/YHXN6/GUNd+8DSjvmspiI6K1rgJbN70eurUJPXxcU4/rOJAbuhqNqzJHG/v38+5HXHMDrKwQTLtviRyeWqKitBTk4OivId8UO99jgWlsbvLIZ3N+uyLLIx2VkHo7bdFuKlXF81Dno287jODhkp0dizfh6cHexgZWkHdaXWUB+6FGya+mifF8xsx5T0SU9+HoI1cyfBvpc1rGwsIN+mOYYtZkcAA75LR0Gn7wpeTGlhsJHpCO87pQ3pH2JC4b1wGhzsbWBuZ4EubX6H+5xD3LYTCwahq9O8kmmBVg+3h+3kPUIsA6PNDDF6231kvzyGJj/+gLZyylBUkGfuA3l0aP4rFA0mf7l3y+cEzHDQhKblKLz6WqZgIFkQLDVeFnvHW8FxXMWbOGjbeKjajOUerItrRqC9QncmV+mNXbuPYOeiIdDsaoY41hVPT0JXpx8esjsWZmC5hym6dHfA6s07sefICSwaboMuzMPNJgwJ11dB0dIRcVwOMg3uzIM9cSffiwGFn7F+LJOoaNlh5UYf7D50HCtH9YGGAT9QJ9Z3LmStBuKdkPX12zQYiv2no7jw4DPVCD2m72KWXqGvhjQmLNyOHTt2YOeu3Th87BTOnb+Fd+nlWtDKUKdlkfYIvdUVse9++V5JaRhhoYpJBx8yPnkNVyNF6Pcdhy07d+LwCV8MM5WGx7yj3J4HPN1hP3Uft/zx+RUYdpZC//FzsGPnLpw8swf6qmr44zQ/WGvJCF30XcH3hEu5uweyak4IF2p8PsXegGkXKTiOns199rjvAVjLasJrL98jZ6abFlw3CN0bC5PgYq0Mz+NP+fiHezDuLoN9kXl4ccoLGipW2L5vN3cf7N6zH6d9z+P23UixnTYKPz6Fu34X6PWe/tUb3EkWBEvNlkXRRwyzNsXiC+xQl1I+PD4HfUVNbLnB1v98xrBO8pi+Q5hEjGHrWGsoGHlxjZ6h+2fAdAhfRcA+rGoqMjjCpwkMWRhr2hE9Z/M9ZC4t8oCVwxy+sTTtPiyNOmN/qDCcPv0x5BWVsTm0uJKgAJ69FKEzeTsXOz6jP3q5rRIe9AIsdzDCoFnHuRiTj8XI7pqYd5hNNJLQT7sTVl8v7R73+OpeHLzIT2D2JeqyLJIDd0PdYBBz5kQ5vXAQVM3GIIn56qlBPlBuYIyS/muZD6HfpiP+OBTBRPIwqb8Bll2O5Tbd9B6KDtajuWWWTyF7IS3VFqees+WTdxiioYo1vnyFVfCe4dDuN7Kk3/vd3VNRX3+EEANynh5Dh44dsOshU2YpegVnFQ34+PP1oXmv/WDaUQcXX/AXLfHWNmgp2OAl831jz82DWnd7lE7WkI59mzfgcWJx9qIMH19ghJUu+kyTrCfX/0pNlkV+TibSPn2qINicT0l4nfiBK1V+LT5nfMTnbKEushzZmR+Qmv6VLV5CAT4lM3875+s+o+Wp0bLIT7gJtXb/hsXA8Zg+fToTZmD27Ckw7KqFP7YVD87Jx+5JPdFJ3YzbPm6QAxr/8B0U3NZwW/3W9UNr6W7w3n8LyE3GxN7aULN0xfQZXnDrbYofvquHkevOcftOdtCF1Vx+lGZSwFaotTfEw+KnueAjpjvqQbVHf+6zQ52s8MO/6qHvcnb/fAwyVcdgYW6aoswIGKkqYNmlOC6eE3sJsorqOBHJJxpnV41Ay45amMT8pomDHSDbRQsHAqIrvbHfXt0EtX/bcW0eX5OaIItra/rj53ZymDKDvQeY4DUTE4c6QdugL4KEgSfZiXdhpyQFG/fxmDFzBpz0ZZibtwnW3WFbMz5gkF5j6DtOQnB0OhLDjkFBujM8JkzHzBkToC3TEN83bIxgxt9Fr86jXWddnItlE4UibHA1hP3wLdzfYEkOOwnVjh0xcOx0eHlNhLF8K9Rr2AZ+jB+yw/ehvXwP3E3hk67wwzPQTnsgEoWU7NSi/pDuPZuvokqPgYuBAnR6DuLuW3s9eRgO8MTrT+VLl0U46GXN/Jb6GDp9LmYzv41/FtbhaUlPwL9GTZbF3X0TYdbTsaQNkuXdw6PQlOuEqdv9xJbS/hz5WDxMFrN2+QlxUU6vtIa71yoh9pUpjMXYLj2x49rfW0Kr0bLIeBGASc5OsLE0445pYmbFPDCLcesJ16JcQlFOEjbOGs7sY4X5mw/iygEfLPH25RLfnLcPMM7NCZ6r+Pro3MRHmDHUHqY29thy1A9Htk6Hz3m2qqkQm1fNwKGQV9x+rwNOYOrCvSIjKfNSnmPuKEeYWDpg/b4rOLxjBdafYT+bjrWLx+HKM76aJD85HIsWTMVj4Q7+EHEZcxcsQWLJs52Hq/tXwJb5TQPGzEVoXNWzu6Q9u4EFIzfijfiMzZ+mJsji9s5lcHKwhxl7DzCB7e20fPtRJGaKfue3oRfh4WABq37DcfrKNXjPX4pz3EtxChFydi162jjj+jO+XeiB72bYm5vAedQsXPG7hOVLpuLZRybBj76GKUtW4C2Xwc/B3hWL4XO1pCjK8eTqLjhamcBpyAxcunodC5YuQBhzrVNCj2DWyrUl7SJh51dj6Y7i0iVTct05B5tOlDaqZydFYumkgcxvssairafwWWzKlo0DK0ehTx9HWJmb8s8BF4bjTtSXO0T8L9RkWQRsHwJNAxNuhDZL8uNT0OrYFG6L+F5wX498ePVtAs+dfIawPJmpb/H+Q/kJDr8WeUiOT0R61tf9ReWp8W0WxN9LjWizIP5WarIsAneMgHYPK25qjfRIX+gptMTg5SdES+lFWTjvsxC97e1g0dMJy3Ze4quaGa7vWYnxCzZi15IZTKbUBMNmb8GL8MdYP3MszE0MMHnlEeG9EwVYMEgK7hMXYMGUkbC2tsLMDSeRITw2N/aNw9xNB7nlI+snYfGG7Vg3ZyJsrM0xaNp6vC3eEVm4cXgd3Af0Q++elnDy8ERovFB9UfQZ57fPQR97a9g4OGP5jitCBuItlvWdhDN3v864mi9BsiAqhWRB1GhZ+IxAj159EPvsFrp1+BmOC/mu6qUU4fjSwVDsZoXT/sG4c+047NTlMHoTP9blzB8u+L/vWmPVgasIDLgOS+WWaN/ZBPvO+uPOzSPQ6CSPJef5tq7FHq3wnxbq8Dl7G8G3fGGt3QXj1vPHOTBTFZYj53DLK4Zp4Yfm6th9+ibuBvmjX1c59PHiO1qEHfCCtLI+DvkF43FYMGb104e6mRfXXfrR3tnQ1+2DW/fD8ODOKeh3lMEfR9hR4W/Q7zdNrDnLV2v/XZAsiEohWRA1WRb3Dk6BknRLaBmaQLZzc1iMWl/SA5GlMPUhTDTbYL1/aa487sJKyEg74T1T/Dg3yx3q2jNKqqz2DbJHD7vStoflPSwxZPplbvkPl5ZwXFBarRhzfjFUDJ3wgTnOmcV66D1xMbd+yXA9aI7z4ZZZ7niPgpHVVO57vQi6gtCY0uqq2MsroSlnC7Zi/c7ygZDt0hMPY/lu/qlRD3A3nJ0F4hU8WhvCu1xHn68NyYKoFJIFUZNl8fDIVPz7P79g4t4gfIwPgFrzBpi0i39hEcvnF2dhrqaHAH5SWo6cV1dgqiSLgBRGFguGw2JEaQeGQ4MHoJ9zca+zPKwwtsKomVe52FxXLSw9KnSDZsiLOIdmema4mwlcXGZQIovlowzhtobvNMPiv3UsLByml8xCG+y7B7NmeGLksEGw0FGAvJoz4lhbfYrEnKEWaN+6GTSNbDFj3SF+/qeiGLiTLIhvDcmCqMmyCNo5ApqGFsJoeyBk7xT80lgOF6L4bgY5ry5yc6td5/utcGRF+cKgkzY39sp3wTCYj9okbAEODHKGU7/iebjysJyVxSxeFnNcVbDgMD/RIEv6w8Po0N0E7NtRzy/TF5XFquJ3XwA3N4+BRW8vrh3l3LLRUFIxxhLvfQgIfYLgEythoOGAiDLD9hPinuPs7tXQ6twaFhN9UIhkDG5bV2VRlIPH9/zhd+exmKkNChD1wA+37j7kG6EKMhEe7IeL531x9uxZkfDgKT8tR3bKG9y6dhnnSrb54mbIU76LYhkKPiXA3+8m3mWJ71BXlPkON69ewFnfc3gcU/XU1x9fPcWZ06dx+dZDkaJvWQqzPuBOSCiSP4t+m9TYh7hw0R9pX/qgQHZqHEIf3scXvvJf5pvKIi8DYdev43bY04pdHJl75EHADdwJ56fNKMpORcDNazh/ruJ9EPGGTyriH4Xh8fOSOV++QC5z3Jt4/LL8AL9CRD+5jysXz5cc96p/ENKq6n2WnQz/y2dw+vxVvPn0pXNYgOiHdxD1ptzU0zlJuHT+Ap4nVjHHU+FnhN8Pw5u0r9NVtjw1vYFb18yKm4KcJxtze8qjpc4IpLCpc14C+pt0xJD1fILPcn7JQHTuPp7L6Z+cMwTmIyWTxVyXJtAayM8IwHJkrhN0e03l0qmTC3VFZDGwnCwsHdn2jHwM7dQBw5aVlnzOzumPdq2duO9/afscpjRROv1L8GZ3yNqMZz71AUPbGdVRWeS/QU/lH5mDN8eZcpOhFSWHQvX/6uFneWN+EFZGGEyk6qF+05Zo27atSBi7gG9cijqxAr/W+x4tymyTlpaGoauXyPsf/LzHcz9qBjthXDkirhyAuaYGOst2QNt27aGsooZhc3cgu/jOKEfA4UUw0tVFH7ehcDDrDpvhsxCXXTFFz31+Dr926oqTEaXDr9KeXIFui6boM3UTPlYhizi/edDSU0Z0pRMG/Xm+qSyS7sOIvckaqCHkvei5y4g4hcbMtsY2s7mHMzfqMur/919o3KKNyD3AhmWn+fcVrzTWhq3bZm75S7A9Zjr+UA8aTovLCf4zBtuo4P9+aVxy3M6dO0LFYggCX4s/+SlP/NDPwgC2ffrBtY8tuhn0gW9o2R7/xWRgtNEvGLm2zPtRCt9hmmMXSOm64sGb0ntDLFnPYKmijfU3/57EoibLwt97AOQ1dbi5wYrJSwiAWqN/wXjKDq43UezN3TBW7wL3CdMwccwgaGka4lAw/532TnJCN9fV3DLLTidbmFsLL09iNDBPXRcDJ13gYnP6dkSzjgYYM20Gpk1wg7q+BXwf85raO10BpsP4d2HMG6gK+4WlbRtX17hDx3QClyG6vHoMZKQ1MXnmXMzy8sTAXjpoo6CCByl5SLi1A/pyKhgwZgrmTZ+EHnpdsfEs28AdD8efVLHqdBx3vL+L6imLnFfoba3ACWBS8cvTBcJOLYNUy1+gZmIFbvq+1PuwUmmA3UFlbwdRwg8vgGKrgYgrk96kxfhDu0UjjCx+s1T+W4zoaQ1n574wcZzANUoVU5j2GL1Um2DoEl9kCutfBh+FTP2GmCq8tKQseW/uQL1TR6y8wk5ZzpD1Gh7aChi+qjT3Ukxu1EU0U9LHmUheiqkRN2DQphX6T9/Jl5zKkJr4Gi9jE0S6/b3yXwwDUy28KNOl/uPb13jxIgafciqaLPHVS8S+kbyL3beURdH7EDg1bYffW0hj3mFRgV9bPxGtGzVDJ5eF3PnIfnoaTZSMcTXuy6MS11kawXFoacOiOE4ucIVDXxdYGJvilHBNeD6hn40e+q29IsSZWyYtHkMNZGA9bkvFkg+Tg51lLwOTsdtKSrAHvByh0XMcysxaL5CJiRa/Y/xGoR678D1m9VeHjLE7oj+W27ngM2JevkBSehmVZT1Hr25G2HS7VBaF2WnMPfAC8e8q9u3PSX3H3R8ZVZWKBGqyLBKf3cSJM74Vaiii75zB6q1HSt4PkRobhi3rVmDFxl14Wma+lKjg6zh7k38PBUvk9Su4dPmZECtE6Glf+Afz47ru+/ki7NlLXDnmg+VrtiD8den4qOh7J3DxDj8LQ6j/KVwL43tQsSQ8voWzF4OE+6QAQef2Y9nylTh+JQRZWWk463sMEe/4+/rjy/vYum45VqzYiFuPi8eTpeHa7lN4HFdFCfQvUj1lkRUD6176TG7cA3a9R+JtyU2dhWUTh2Ho4J4wtzAB95VT78FarRFOPv/y8cIPL4RSGw9+/zJs7N0FFh4LueXEW1uhpuOAJy/DYaPZBTuDS6sh8l5fhYb0f3AoXLSYH3xoJ45cChNipeQlhGPtwVNILvOcb3ftBesBFRMqThZdDHCNMV9OXCBs5RQwYNaBconPB+xaNBxmxmawMjFH3xGzEZnM3+Wv/JfA0KwbuPkJM19h9YwhsLWyh72tIdT0bHDwNi+sotQYLJvsDksbG1hb9MDAiSvwomKqVYFvKYvCxAD0bW+AYUMHwsZtATcZIEdeAqYz6/oOdIFcP75kkf3kFJqqWuJemZJiedZZGcNpWCWyyHoBO21N+NyOxJphFugz85iwgeUT+toYwGNHiBDnOTLBFCZOf1So0mQFcH7fDpEBlW+uL4WSgQVeiRZZGDIxiZHFFB921oF0LBxuACWLQYgqN2/kmwen4GpjjB5WtjCxsMGGYwH8huznsNc2xuY7fCvtvVMb0NvWFnYO9tDVVMGwebuQJnzBgBOrYW9liZ5MxsjM1gXHgkQHFIqjJsuC+HpUW1mYmWli2v5jGGFpigOhfMKdE+cH9yGTcWDHbBgaGfCJ/6cw2HT5GQMmLcL69etLw8YteJLAm5aVRRdGFmVrqz/G3oB2SyY3532Hi28fbwLzsXxd5Bo3A1iN8S7NwRemY8v4nmjfSQuT5y7H/uMX8SpF8nqfgsQQaHWQwtyTpfNTFcPKoo2WFY5evwTbzvUhb8e/erGUIlxYORrqFh6IeJ+BvKxUrB9jBbPBq7kJChNuLWVkoc0Vs29tHgdNk4F4/v4T8vOycHzBQEipjeTqXv1Wj4CG5WR8YvxQkB6LvnpqmLS94iyt5fnWsrBtroddRw/CztQSNxP47/A+5AA8Rs7BlrXTINVrOifWnOcX0ExKFqPnrha9D9YfQZzwNqGqZBF9fiWUutmDTXLjzy6EvIYDYksucwYG9eoO9d6jS469esFU9DB3wqWHkry6NRtzHNXQYxBz3SoU+DIx2aYNZmw5gjVjjFGvvhpCyw3az096iJ46Kpi9xx/Z+QV4/eAYdFW74sADxihFMZwsfEKY5yTtLkxV1bHmdDhy8vOR8vw8FOTbYm3wRyAlCN3UVbH/Hvs8FeLCKjeo2IxAUhUlDJIFwVJtZWHSQwXz/J7j6Ix+8Fjky60O2D0LwxYex5NLi6Gjp8fLIuMRbBV+QNvOilBRUSkNGro4EcpXTUWdWYvm39eHlHRndO7MBlkoysvAwH0m/86IzGcwU9XAvvt83XBK8CZIyfdAmMi853nwP74VA6wNoK6uBiXm8/0nrERyVsWqHhEyYjFCvzOMBy4VRnqKkhd7E1IdW6JVe2W4OPWDnGx3nHpcpuogLxG99BXhvu4y3r9NQPybt3hyYQ06N1dCCJNOpASt4GQRy2S7PyQk4LOQa01PScS1zdPQpakLd54e7pmOdu3VsXH/GTyN+4i89AykJH95yvNivrUsrBppwPfxaywYYIqZe/li/PElozDH5wYu+3iilR0vi9zoq2jR9Dd0lFcWvQ9UXHBHeNds5bIoxKrBxug7r/iNi2/h0LUzFvgWv4T/M0b21kbDVh1Ljq2qLIe2Mvo4FiBUN36RIhxc5IKmKla4I3a+ps/4w1EKTZu0hLFTf+goyWLsRtEqy7BDk9GpmyVC41Pw5nU83iW9wURG+Hbj2MFciXBkZLGF7f+Z/RFxTKaCpSA7A68ib0OrexeMYyc+zIyAqWJ7OE9dgxtB4Yx08vD2fTJyq7i0JAuCpfrKwlgJ0/3eIsVvLfSsR3F1jsuGOsInOAlxF/+Alq4gi9T7sFZthMOPvlxf9/T4MnRqpIe1e/dj/342HMT14MclVQcvzi7Cj//+Dd0t7GBlbQ1bi+74ud5/MEd4IVLWh7eI/VDm+LmpCL52FHaqrWE/ZfMX55jJfRsKN1059HCdw71pTxx5cTfwe/1GcJ9/mot7j9BFa60BeFe8f1oYLDX+C3UjWzg6OMDBoTfs7SxhwJzD+0ms2FhZdAP3io2C99j4xzA49nWB6wAX2BlqQEFqMGLYH1qUidMbvaDdpSOUVFSh7zQWd16Waej4At9cFg1VcToqH6F7JzGlqeVMspuGCS59cJ35wVc3jS+RRfbTU2iqbIY74tqPBSqVRVo4jNv+F9LqhtxUDdZ2tmjb9HtouCwXrm86+tnqw3WzaGns8uqhaNrZBk/Kty2UkI1N03qjBSOKK9FfaqjOhKdVM0j3GI5k5o/FXlyORg2lcCS8NLdyeV1ftGrTFva9neDQyx69HR1grtMdExedY07UWzjqsNVQ/EP86OxW9O3lAFfXgXDu3wtNpWUx/QI7uy7wJuwCBtnpQVpWEZpaelhy6IaYKjRRSBYES7WWxaRzMWyWEfZmdjh28TSGuA3jXiQUeWp6OVk0xD6uaC2eR4cWQLnt0JK+1qLkYp6LNnT7TsHBA3uxZ+8e7Dt4AJ59taBgPpqr6ok4OhOtdd3KdL/jeX5kAprp9+G74JUj89Vd2GoqwGH8FjHdf0thq6GadzHCleL3gaY9h2nHX2AtvFsBn6Nhod0Bc09HopDJCebm5aGoIB8ZKalcb53Xt5bA0FyX+Q5F2DCyJ1StR+Na8BOkMdnFN9e3QquFK6KZQ2dmlYohLtwfI6w7oVufSVwVVWV8e1mo4NCTXGb5JmytnHHu/GG4uXty7Re+a0eXkcVpRhYmuCFUVYmDlUWfEew7Qypyd5cXZBSMsZ259uw9sGffPuxeMRrNWqvhKtfIkI3+jCxcNpSbVfTNVcj+VxUnn4g7k6lYN7IHFIxdEFpif3FkYqJlM0zxETpbMMn3puF6aKzSF8Kr4nF7kyuUzF3wobAIeXm5yCsoQk5mJj6lM2ciO5Krhtr54BOSH2yHfBclrD16GbGJ7B2fDBtbbYw79QRFuZ/BfIwjNy0ep9ZMQJuf1HH2abk6r3KQLAiWaisLY0MFjD/N9zrYNrU35GU0MXo+PxFX+DFPaDK5qmJZWCn/hm0345CdnS0ScnL5BzSckYVCS9HeUMXkvLoKtU6dcZQdOVOG/MhjaPN7B5yIyEBhciiMO/wO2zHrEJWYxh07MTII/fXaoeeMrRVLFplvMKy7AkyGb0QG83AW5OZwn8nLq/gFcqMu4HclfZyNLH1gY6+uQv3vf8NGP36k0NaxtlC1Gou3wlf02zYV+lajuBcpJd5ZCn1zPaTmF2BgV1k4zuFnzy3KeY9lbtr4rdlAJi8OnFk2EqaDV5TI4fQflujec1ylImP51rKw/K0L9t1nf0E2ZntYQVFLA7N28gn2iVUj0cJ2WoksGisY4NzzVJF7gA25Qj0L2xvK3mNTue3sSf2MSVay6Lf4ErdfKRlwVW6Nvsv5Ltj9bXThtNy39LMZSdg6wQyN1HrjZXE3uRIKcWiBI9qqWyKMvXBF+dxn2HuyYt6C7Q3VFBO8+WvHkcpkGtr/DNPJfKYh88VlqMpIY9VFoUE6LQIDTLSx+Ngj5tivYK9liD2PsvD86HD8pmbN9xRkeHZ+I5o0+QWz/N+h8PU1WJsY4XwUX8IpenUJyk21cPpJ5V1z/1lZFCE/Nxe5+eLL62xGKbfkHPLizCm5lqUhl3keuD2KCpCbwz9/xUHMY8jBHrcyCvLY44imE/8zRYXM38ktkXZ5Cphtefn8FywqrPjd+ZCDAibTwJLPZCDzheXKYI9bcS/mXDPnr+yx8ys5VDWVxUsY6MlijNAgHHN+GX78/kdsuM03JD48PAVqWt24+VKQ8RAW0vXwS8OmaN68uUjQcZ3G5b4jjsyH7O8uiBVzk1xY5AxpgyH4WOEkpWOUQRvojmBHSDLfIeAEbLtrorNUe+7Ycl3U4DRuGeLE9L6JPL8Q/2LOR+MWbdGqRYuS7zNibmm3y2JyI8+jkZwOTj8Xzd1tHd8DP7cyxL23mSj6FIHpg6ygb9YTLr1toKVniS1X+XPz6uZCdDfWQALzJZ+cXwcNeVnY9XHB0BGjMGvKYGh1NcDthFymgHIH7haGMLayg0tfexhbOuPS/S93Ny7mm8ri7R2Y/qyAvSF83dKtbSNQ7//a4jLbQMNwbMUwNLWayl2fvOiraPLr92jQpFnJ+S4ONgP56Rl29zPG9z/+IrKto0YPXLlyCKrtlHEmouLFPL9qIJpI2+Fjdj4mOGri+59+K/28VEeoaJlgvz9fxVOWgpQwdG9cD//6pSnat2lZ8hlNx3FIqnAfZmKcSUOMWc+3zRUTe3kNfvnPb1hyln/LXsiJFTDurs1c3wGwMdKBw4SFiGfH7uRGwkZDD1uCklD46TlGWneDiq41PAYNwUTPWXDU6YaRq5h7rzAHuxYNhVZ3Q7gMGAArYyNM2nCm3HiSivyzskjBH3qKaCWtjVvFpe1i8hMwpIcs2piO4Tur5L6CQw9VtGxRej2Lw9BVfE+2tyGboNyhtcg2ac0eWLDtIldrUMxLP2+0a9EBW67wgzzLkvshGiunDoGqbBs0b9kWPXq6Yv/14u6z/xtpz85DrlUrdB+wlCsdl+V9yBHIt2qDkSsPc/H4gG1Qbcv8zTLfnQ/dcDSIzUB9xmgPc4w7WvmL0VIenoJi65bwOlyumz9z/sbZyoicP/muxli254rYqvXqKQvmpo6MfIrXqUK+NzcVzyPCkSH8gqyP8Yh4/pwfh1CYhegn9xB45zZ385UN955EcwlJzse3ePooVuxDkfD8MaJjxY87SH7zAvfDY7ljcBR9xrPQEO7Yj6O/fMI+vXuBkJAQBAbcEfk+ETEVq8qKctLw8OlzpGaXOx/5qQgJvIPXH4tvqQI8v38H1/388Sa19JfkpifieVRESQ+blLhn8PPzw7NXfH13TPQjvC9+HWvBJ9wP8MN1/0AkSfiO5m8pC3YEd1TYU3zI5L9/fkYyHofHlFzHj+9e4ZFwHYpy0vHoQQgCble8Dx4+5fvBfYyNQnBwoMi2wHthePf2Fe5HvBB7fxRkJuFR6ANkMKWThNgIBAcGlHz2Njvy/gtFs8Ksjwi9F4K75f5eSHhkhfEzzN54HfUQr5MqdjiICgtGWFTpxEWZSTHM9b2OoIf8m/o4CrPxIiKSuc7CL8hJxd1bfrhz7zH3m7LexSEquriswd7zYbh+/TrCX5Suq4x/VhZvMbZjGyZh+Tem7OB7KhaTdHc/5L5nEh31geBGlGQ+QWd5OYxee1TkHLMh4hWfsYw8PwXtFeRw8HLptrN7lqF1w8ZYcqa4d2Ie1o23QhcFefQatli0tJ33EbP7aEPZahjO+fGf371iFBo0bI1t/lV1bKjIh/sHUP/Xevg3k+D7vxLVxeFFblyi2n8WP2I84pQXZDt3wuHrpd+dD/fwPo15JopSYG8mCyefyno1FmH3jEFQkJWHfr8pEN67xfM5khv8PGbFwZJjn9m9GB1bt8KaayXvlCyhesqCqDZ8U1kQ1YJ/VhbxGK+kDztLa5gNmF3mtbJFOLBoLKytbdHabChfpZwRDjmN7tjBvUBfPBG+U9Clh7FIt3mWpcN1ITtoLbecF+8Hg65mOHvdFwaaujgbWeZ4Cf5o00IJx6NFM1dbZjlj7CZ+5PaXuLRzFZaeKJ26gyUlaBekTA1gaW4Ez61l2r/SozDBvS9sjNtj0Mx13KqnJ72gY6Bf5hyUoygZfW2U4bJLGG8jhqLUcFjr6GDPxavop6uGLQFlahMyI9G7a0PsChFtzR3XTxN6s/gp08tCsiAqhWRB/NOyGN5ZB/NWbYaThTl8i9/2lxmFUQOHYPW6RWhjMACx7O3IlCwU1TQw90gg4uLiyoR4pH/mS6OsLJRNTSBaps/GCLNOMPLcz8WurR4C9d5eTPmuEPPttdBvfplpV3LeY5ylKhStRuBy8GMkplTd3byYPdNc0HuNaBfo5AAftLHojbXrZsHKcWqJCGKuesN94mIsGd0d/afw04tEnJnNddO/HVX2t8Uh/u175LHukkAW4cdmQknfA2xFwrbRZrAYtrG07YKRhVPX3zBv/62SYz+8eRTWJnY4EFRx6hiSBVEpJAvin5bFECk1rD11D6vH9sLY9XzuO+76ZriNX4mQy9vQWLs/L4ucF9BWaI6f6jdAo0aNygR5bD3Pdw6JuToH7dq1guuIsRg7lg9uvQ3RqkN3+L1gkuqiNAwx64ZFp/lqvYRrq6DUtRdelqmLykoMhdewPlCRaY128ipw6O+G7WeDhK2iFKVHY+18/u8Yq8lCurs1tzx93g5OWJ/u7kBTw564/SgQ/UwscJnr8w5s9/TAkiN3sWuyNpwm8+/LiLm2As1//B4NRH5bI3Q0cMQLrgbrQxWyyMYfjjoYu4Wvzst7tA+yyvq4+06ols55CWfNn/DTr6Xn79d/fwc5u6l4L+ZxJ1kQlUKyIP5xWbTrguVnYhHtOx9GffgODPv+8MCCQ48Q778FDboJshBKFnMOB3AJUml4jU9CySLm+jy0bt4YPazsYGfHh/GzVyI0jq96SXtyDNJNGmPwzFVYs2YN1s4dxSSaDbH2Spk5ywVSkxLwMOAKFk0ZiE7tpDChbDWSQFHaE8wYzv8d5U5t0FK+K7c8YNgy7j3g6YwsGnc3x+PPOVg10AxT2Olj8uMx2KkPgj/kY8cY1RJZFJcsbkWW/W2xeJXwTqKSRX68Hzq3bAH7sQu537Z+5TS0+29DeO4Xpij6zJcs5u69WXLs6PBbcDaUg/WETSIdAFhIFkSlkCyIbyGLhUcjGRmEo2cPW9yOiMBEl34ISAZeX12L34plkfEYcura2BT05elWuGoo5v4tP0aqmGMz+6GtjBbc3AagX/9+cB7oBqMuzdHVdRlXXRN5aROGDpqL8q0iId4T0amNc0kXZXHsne4Kp7XlqqECfdBYxwShTEoccXg615392Z396DuEnxBz0zClElk8O+WFbrrdK7S3lFCFLG5uGos27ZXg5lH821xhrd0JSmZjuO707Pgcx64NsOWmaOL/6twUtFRSQ/nhNyQLolJIFsS3kMXcA+xMr0VYOroPHJz7Y9CkZVwvsqhzK8vIgm/g9gn78qDCiHNToWRogGhxbeBMztpaRRrzT5bpWcbw/tZWtGraBbcYw3yOOIE2zRpi/rFQYStLPnaPt4OGyQxUNpzx5NrZmLaHnRyylBRWFtomCGIbK5KD0dfKDC59B2DJfr4hfN2QUllwDdz6el8YTMxQlAQnRhaDjlWcc46tohqk3wkjton2KCuIPgWplu1wMJw5IUWx6M3IouykqSyHZ1lASqdXmQlceUgWRKWQLIh/Vhav0PeXNpi6nR8T8PDoTC6hmSm8Yyb8+HzUk7HGC/Z2/PwMHVs3QEdN45IqpuLgMXo7NwA16vQotFZRxnMxswE92DsVLVrp4Gl5keS9ga1cA5hNOsRFr2yeiDYtpGBiacMf39IISmomOBde9Til8iT5b0Q9WQ34cYWhAizq1Qn1/qOBYHaELcPSvq1hPpyfCTvy7Cz89n/fwcha9LexYb0vK69s9DNogfqyWiLbXOf4IPTSRrRqo4yb8UL7RAmfMbZ7S6i7eyO/KBG2neuhk7phyWftrU2Z0ogclp4snZa9GJIFUSkkC+KflcUnnF27GTcf8RU8hR+eY93SLYgQpsZNigzEUp8TSGXrbApSsct7GaZOGl/SeF0cZi86zo2XSHtxFZt378aHioNbcP/Sfqw5fEuIiRLmuxPrd50uGXuT+CwAaxd7ccde4r0XsV+cC6xysuJDsXzH3pJpXGICDmHD3uMlfyf47GYcuxLILafFBmHZ7FkYX+63seHATX5Q4KXDGzFjykSRbTO3HEOI3xn47DpTYeAfS2TgCSzyPo3P+Rk467NI5PxNm7MSgRHiK9dIFkSlkCyIf1YWRHWFZEFUCsmCIFkQLCQLolJIFgTJgmAhWRCVQrIgSBYEC8mCqBSSBUGyIFhIFkSlkCwIkgXBQrIgKoVkQZAsCBaSBVEpJAuCZEGwkCyISiFZECQLguWbyaKw8M+NgCT+Wf4uubOy8Pb2FmJEdefvlEVCQumbAInqy5+V+5+WBZtTNTc3F2JEdWfXrl1/myy2bdsmxIjqjpWVFTZs2CDEvg5sTlVdXR0fPlR83TBR/bh79y7U1NT+OVls374drVq1wqBBgzBw4EAK1Th4eHjA0NAQxsbGX70kaGpqCl1dXe5viPvbFKpPYJ/Vdu3affWS4O3bt9GiRQs4OzuL/bsUqk9wc3NDz549ISsr+z+XBP+0LIKCguDl5YWpU6dSqAFhxowZ2Lx5M3Jyyr8K5c+Tn58PHx8f7tji/iaF6hfYZ5YtCXxNoqOjMWfOHHh6eor9mxSqV5g+fTqWLl2K5ORk4QpKxp+WBUEQBFF3IFkQBEEQVUKyIAiCIKqEZEEQBEFUCcmCIAiCqBKSBUEQBFElJAuCIAiiSkgWBEEQRJWQLAiCIIgqIVkQBEEQVUKyIAiCIKqEZEEQBEFUCcmCIAiCqBKSBUEQBFElJAuCIAiiSkgWBEEQRJWQLAiCIIgqESsLChQoUKBA4QuBk4U7E7KFFRQoUKBAgUK5UG/6/wNNR1XFrYnLAQAAAABJRU5ErkJggg==;" vertex="1" parent="1">
          <mxGeometry x="20" y="20" width="395" height="192" as="geometry" />
        </mxCell>
        <mxCell id="uRRXN4-jzMHdJdjElicX-6" value="" style="edgeStyle=orthogonalEdgeStyle;rounded=0;orthogonalLoop=1;jettySize=auto;html=1;" edge="1" parent="1" source="uRRXN4-jzMHdJdjElicX-2" target="uRRXN4-jzMHdJdjElicX-4">
          <mxGeometry relative="1" as="geometry" />
        </mxCell>
        <mxCell id="uRRXN4-jzMHdJdjElicX-7" style="edgeStyle=orthogonalEdgeStyle;rounded=0;orthogonalLoop=1;jettySize=auto;html=1;entryX=0.5;entryY=0;entryDx=0;entryDy=0;" edge="1" parent="1" source="uRRXN4-jzMHdJdjElicX-2" target="uRRXN4-jzMHdJdjElicX-5">
          <mxGeometry relative="1" as="geometry">
            <Array as="points">
              <mxPoint x="610" y="90" />
              <mxPoint x="700" y="90" />
            </Array>
          </mxGeometry>
        </mxCell>
        <mxCell id="uRRXN4-jzMHdJdjElicX-8" style="edgeStyle=orthogonalEdgeStyle;rounded=0;orthogonalLoop=1;jettySize=auto;html=1;entryX=0.5;entryY=0;entryDx=0;entryDy=0;" edge="1" parent="1" source="uRRXN4-jzMHdJdjElicX-2" target="uRRXN4-jzMHdJdjElicX-3">
          <mxGeometry relative="1" as="geometry">
            <Array as="points">
              <mxPoint x="610" y="90" />
              <mxPoint x="510" y="90" />
            </Array>
          </mxGeometry>
        </mxCell>
        <mxCell id="uRRXN4-jzMHdJdjElicX-2" value="Dataset" style="rounded=0;whiteSpace=wrap;html=1;" vertex="1" parent="1">
          <mxGeometry x="570" y="40" width="80" height="40" as="geometry" />
        </mxCell>
        <mxCell id="uRRXN4-jzMHdJdjElicX-3" value="Dataframe Kombinasi MEPAS MELAB" style="rounded=0;whiteSpace=wrap;html=1;" vertex="1" parent="1">
          <mxGeometry x="460" y="120" width="100" height="50" as="geometry" />
        </mxCell>
        <mxCell id="uRRXN4-jzMHdJdjElicX-4" value="Dataframe MELAB" style="rounded=0;whiteSpace=wrap;html=1;" vertex="1" parent="1">
          <mxGeometry x="570" y="120" width="80" height="40" as="geometry" />
        </mxCell>
        <mxCell id="uRRXN4-jzMHdJdjElicX-5" value="Dataframe MEPAS" style="rounded=0;whiteSpace=wrap;html=1;" vertex="1" parent="1">
          <mxGeometry x="660" y="120" width="80" height="40" as="geometry" />
        </mxCell>
      </root>
    </mxGraphModel>
  </diagram>
</mxfile>
